<svg width="65" height="65" viewBox="0 0 65 65" fill="none" xmlns="http://www.w3.org/2000/svg">
<path d="M55.46 49.8726C55.46 47.1117 53.7454 44.6451 51.1485 43.7062C47.3322 42.3262 41.0387 40.71 32.5 40.71C23.9614 40.71 17.6679 42.3262 13.8516 43.7062C11.2547 44.6451 9.54004 47.1109 9.54004 49.8726L9.54004 57.11L55.46 57.11L55.46 49.8726Z" stroke="#171A1F" stroke-width="1.968" stroke-miterlimit="10" stroke-linecap="round"/>
<path d="M32.5 34.13C26.1598 34.13 21.02 28.9903 21.02 22.65V19.37C21.02 13.0298 26.1598 7.89001 32.5 7.89001C38.8403 7.89001 43.98 13.0298 43.98 19.37V22.65C43.98 28.9903 38.8403 34.13 32.5 34.13Z" stroke="#171A1F" stroke-width="1.968" stroke-miterlimit="10" stroke-linecap="round"/>
</svg>
