<svg width="17" height="17" viewBox="0 0 17 17" fill="none" xmlns="http://www.w3.org/2000/svg">
<path d="M10.5154 7.05457L6.48437 11.0856" stroke="#565D6D" stroke-width="1.368" stroke-miterlimit="10"/>
<path d="M8.4999 11.9201C10.0739 11.9201 11.3499 10.6441 11.3499 9.07009C11.3499 7.49608 10.0739 6.22009 8.4999 6.22009C6.92589 6.22009 5.6499 7.49608 5.6499 9.07009C5.6499 10.6441 6.92589 11.9201 8.4999 11.9201Z" stroke="#565D6D" stroke-width="1.368" stroke-miterlimit="10" stroke-linecap="square"/>
<path d="M13.63 14.2L3.36998 14.2C2.74038 14.2 2.22998 13.6897 2.22998 13.06L2.22998 5.65005C2.22998 5.02044 2.74038 4.51005 3.36998 4.51005L5.64998 4.51005L6.78998 2.80005L10.21 2.80005L11.35 4.51005L13.63 4.51005C14.2596 4.51005 14.77 5.02044 14.77 5.65005L14.77 13.06C14.77 13.6897 14.2596 14.2 13.63 14.2Z" stroke="#565D6D" stroke-width="1.368" stroke-miterlimit="10" stroke-linecap="round"/>
</svg>
