<svg width="29" height="29" viewBox="0 0 29 29" fill="none" xmlns="http://www.w3.org/2000/svg">
<path d="M14.4999 7.5V6.5C14.4999 5.39543 13.6045 4.5 12.4999 4.5C11.3954 4.5 10.4999 5.39543 10.4999 6.5L10.4999 16.023C10.4997 16.3546 10.3351 16.6646 10.0605 16.8505C9.78585 17.0364 9.43691 17.074 9.12894 16.951L6.58594 15.934C5.92709 15.6704 5.1745 15.825 4.67294 16.327C4.01233 16.987 3.9769 18.0463 4.59194 18.749L7.80994 22.427C9.51921 24.3802 11.9885 25.5003 14.5839 25.5H16.4999C21.4705 25.5 25.4999 21.4706 25.4999 16.5L25.4999 8C25.4999 7.17157 24.8284 6.5 23.9999 6.5C23.1715 6.5 22.4999 7.17157 22.4999 8V8.5" stroke="#F0C390" stroke-width="2.4" stroke-miterlimit="10" stroke-linecap="round"/>
<path d="M14.5 13.5L14.5 5.5C14.5 4.39543 15.3954 3.5 16.5 3.5C17.6046 3.5 18.5 4.39543 18.5 5.5L18.5 13.5" stroke="#F0C390" stroke-width="2.4" stroke-miterlimit="10" stroke-linecap="round"/>
<path d="M18.5 7.5V6.5C18.5 5.39543 19.3954 4.5 20.5 4.5C21.6046 4.5 22.5 5.39543 22.5 6.5L22.5 13.5" stroke="#F0C390" stroke-width="2.4" stroke-miterlimit="10" stroke-linecap="round"/>
</svg>
