<svg width="25" height="25" viewBox="0 0 25 25" fill="none" xmlns="http://www.w3.org/2000/svg">
<path d="M18.0416 11.6429V9.07143C18.0416 7.48013 17.4095 5.954 16.2843 4.82879C15.1591 3.70357 13.6329 3.07143 12.0416 3.07143C10.4503 3.07143 8.92422 3.70357 7.799 4.82879C6.67378 5.954 6.04164 7.48013 6.04164 9.07143V11.6429C6.04164 14.4714 3.47021 15.1571 3.47021 16.7857C3.47021 18.2429 6.81307 19.3571 12.0416 19.3571C17.2702 19.3571 20.6131 18.2429 20.6131 16.7857C20.6131 15.1571 18.0416 14.4714 18.0416 11.6429Z" stroke="#565D6D" stroke-width="2.05714" stroke-miterlimit="10" stroke-linecap="square"/>
<path d="M12.0419 21.0714C11.1753 21.0714 10.361 21.0423 9.59473 20.9857C9.75809 21.5068 10.0836 21.9622 10.5237 22.2855C10.9639 22.6088 11.4957 22.7831 12.0419 22.7831C12.588 22.7831 13.1199 22.6088 13.56 22.2855C14.0002 21.9622 14.3256 21.5068 14.489 20.9857C13.7227 21.0423 12.9084 21.0714 12.0419 21.0714Z" fill="#565D6D"/>
</svg>
