<svg width="29" height="29" viewBox="0 0 29 29" fill="none" xmlns="http://www.w3.org/2000/svg">
<path d="M8.5 15.5001C5.73858 15.5001 3.5 13.2615 3.5 10.5001C3.5 7.73868 5.73858 5.5001 8.5 5.5001C8.561 5.5001 8.618 5.5161 8.678 5.5181C9.15554 4.13552 10.5624 3.30064 12.0048 3.54392C13.4472 3.7872 14.5024 5.03737 14.5 6.5001L14.5 7.5001C14.5 9.15696 13.1569 10.5001 11.5 10.5001H10.5" stroke="#9334E9" stroke-width="2.4" stroke-miterlimit="10" stroke-linecap="round"/>
<path d="M24.342 19.312C24.4426 19.7001 24.4957 20.0991 24.5 20.5C24.5 23.2614 22.2614 25.5 19.5 25.5C16.7386 25.5 14.5 23.2614 14.5 20.5C14.5 23.2614 12.2614 25.5 9.5 25.5C6.73858 25.5 4.5 23.2614 4.5 20.5C4.50433 20.0991 4.55738 19.7001 4.658 19.312" stroke="#9334E9" stroke-width="2.4" stroke-miterlimit="10" stroke-linecap="round"/>
<path d="M4.676 13.686C3.92337 14.429 3.4998 15.4425 3.5 16.5C3.5 18.7092 5.29086 20.5 7.5 20.5H8.5" stroke="#9334E9" stroke-width="2.4" stroke-miterlimit="10" stroke-linecap="round"/>
<path d="M9.5 11.5C10.0523 11.5 10.5 11.0523 10.5 10.5C10.5 9.94772 10.0523 9.5 9.5 9.5C8.94772 9.5 8.5 9.94772 8.5 10.5C8.5 11.0523 8.94772 11.5 9.5 11.5Z" stroke="#9334E9" stroke-width="2.4" stroke-miterlimit="10" stroke-linecap="square"/>
<path d="M9.5 21.5C10.0523 21.5 10.5 21.0523 10.5 20.5C10.5 19.9477 10.0523 19.5 9.5 19.5C8.94772 19.5 8.5 19.9477 8.5 20.5C8.5 21.0523 8.94772 21.5 9.5 21.5Z" stroke="#9334E9" stroke-width="2.4" stroke-miterlimit="10" stroke-linecap="square"/>
<path d="M24.324 13.686C25.0766 14.429 25.5002 15.4425 25.5 16.5C25.5 18.7092 23.7091 20.5 21.5 20.5H20.5" stroke="#9334E9" stroke-width="2.4" stroke-miterlimit="10" stroke-linecap="round"/>
<path d="M14.5 20.5L14.5 16.5" stroke="#9334E9" stroke-width="2.4" stroke-miterlimit="10" stroke-linecap="square"/>
<path d="M19.5 21.5C20.0523 21.5 20.5 21.0523 20.5 20.5C20.5 19.9477 20.0523 19.5 19.5 19.5C18.9477 19.5 18.5 19.9477 18.5 20.5C18.5 21.0523 18.9477 21.5 19.5 21.5Z" stroke="#9334E9" stroke-width="2.4" stroke-miterlimit="10" stroke-linecap="square"/>
<path d="M20.5 15.5001C23.2614 15.5001 25.5 13.2615 25.5 10.5001C25.5 7.73868 23.2614 5.5001 20.5 5.5001C20.439 5.5001 20.382 5.5161 20.322 5.5181C19.8445 4.13552 18.4376 3.30064 16.9952 3.54392C15.5528 3.7872 14.4976 5.03737 14.5 6.5001L14.5 7.5001C14.5 9.15696 15.8431 10.5001 17.5 10.5001H18.5" stroke="#9334E9" stroke-width="2.4" stroke-miterlimit="10" stroke-linecap="round"/>
<path d="M19.5 11.5C20.0523 11.5 20.5 11.0523 20.5 10.5C20.5 9.94772 20.0523 9.5 19.5 9.5C18.9477 9.5 18.5 9.94772 18.5 10.5C18.5 11.0523 18.9477 11.5 19.5 11.5Z" stroke="#9334E9" stroke-width="2.4" stroke-miterlimit="10" stroke-linecap="square"/>
<path d="M14.5 16.5C15.0523 16.5 15.5 16.0523 15.5 15.5C15.5 14.9477 15.0523 14.5 14.5 14.5C13.9477 14.5 13.5 14.9477 13.5 15.5C13.5 16.0523 13.9477 16.5 14.5 16.5Z" stroke="#9334E9" stroke-width="2.4" stroke-miterlimit="10" stroke-linecap="square"/>
</svg>
