<svg width="25" height="25" viewBox="0 0 25 25" fill="none" xmlns="http://www.w3.org/2000/svg">
<path d="M8.58929 12.5H6.875V13.3571H8.58929V12.5Z" stroke="#565D6D" stroke-width="2.05714" stroke-miterlimit="10" stroke-linecap="square"/>
<path d="M13.7321 12.5H12.0178V13.3571H13.7321V12.5Z" stroke="#565D6D" stroke-width="2.05714" stroke-miterlimit="10" stroke-linecap="square"/>
<path d="M8.58929 16.7857H6.875V17.6429H8.58929V16.7857Z" stroke="#565D6D" stroke-width="2.05714" stroke-miterlimit="10" stroke-linecap="square"/>
<path d="M13.7321 16.7857H12.0178V17.6429H13.7321V16.7857Z" stroke="#565D6D" stroke-width="2.05714" stroke-miterlimit="10" stroke-linecap="square"/>
<path d="M18.8749 12.5H17.1606V13.3571H18.8749V12.5Z" stroke="#565D6D" stroke-width="2.05714" stroke-miterlimit="10" stroke-linecap="square"/>
<path d="M8.58929 12.5H6.875V13.3571H8.58929V12.5Z" fill="#565D6D"/>
<path d="M13.7321 12.5H12.0178V13.3571H13.7321V12.5Z" fill="#565D6D"/>
<path d="M8.58929 16.7857H6.875V17.6429H8.58929V16.7857Z" fill="#565D6D"/>
<path d="M13.7321 16.7857H12.0178V17.6429H13.7321V16.7857Z" fill="#565D6D"/>
<path d="M18.8749 12.5H17.1606V13.3571H18.8749V12.5Z" fill="#565D6D"/>
<path d="M22.3037 5.64285L3.44653 5.64285L3.44653 21.0714L22.3037 21.0714L22.3037 5.64285Z" stroke="#565D6D" stroke-width="2.05714" stroke-miterlimit="10" stroke-linecap="square"/>
<path d="M17.1606 5.64285V3.07143" stroke="#565D6D" stroke-width="2.05714" stroke-miterlimit="10" stroke-linecap="square"/>
<path d="M8.58936 5.64285V3.07143" stroke="#565D6D" stroke-width="2.05714" stroke-miterlimit="10" stroke-linecap="square"/>
<path d="M3.44653 9.07143L22.3037 9.07143" stroke="#565D6D" stroke-width="2.05714" stroke-miterlimit="10"/>
</svg>
